Coordinates
version=1
nRows=5
nColumns=40
inDegrees=yes

Units are S.I. units (second, meters, Newtons, ...)
Angles are in degrees.

endheader
time	pelvis_tilt	pelvis_list	pelvis_rotation	pelvis_tx	pelvis_ty	pelvis_tz	hip_flexion_r	hip_adduction_r	hip_rotation_r	knee_angle_r	knee_angle_r_beta	ankle_angle_r	subtalar_angle_r	mtp_angle_r	hip_flexion_l	hip_adduction_l	hip_rotation_l	knee_angle_l	knee_angle_l_beta	ankle_angle_l	subtalar_angle_l	mtp_angle_l	lumbar_extension	lumbar_bending	lumbar_rotation	arm_flex_r	arm_add_r	arm_rot_r	elbow_flex_r	pro_sup_r	wrist_flex_r	wrist_dev_r	arm_flex_l	arm_add_l	arm_rot_l	elbow_flex_l	pro_sup_l	wrist_flex_l	wrist_dev_l
     58.06000000	     -4.62988704	     -3.40936101	     -3.37383383	      0.98825750	      0.92458876	      0.39862319	     27.19573587	     -1.08710739	    -14.68286382	     11.00799855	     11.00799855	      0.80442585	      5.43611425	      9.87608470	     -1.27115072	     -2.21712121	    -13.81436499	     10.63684779	     10.63684779	     17.47675037	     -2.88125479	     -4.57714822	     -9.16760178	      5.91077434	      2.16925768	    -17.10867835	    -12.56551866	    -16.26160676	     21.43558782	     47.79673445	      0.00000000	      0.00000000	     25.97302814	    -15.73932882	     -7.93256345	     76.42268128	     47.51813365	      0.00000000	      0.00000000
     58.07257143	     -4.62751669	     -3.40659399	     -3.29810448	      0.98933770	      0.92325045	      0.40035392	     26.74234368	     -0.89020558	    -15.25229296	     10.78504353	     10.78504353	      0.73289328	      5.53234624	      9.80484034	     -1.88412783	     -2.31948198	    -13.74553649	     10.65947591	     10.65947591	     17.85100429	     -2.76904061	     -4.66551203	     -8.98601231	      5.86942779	      2.14820649	    -17.20497808	    -12.39141388	    -16.23841285	     21.37875252	     47.79150875	      0.00000000	      0.00000000	     25.66569863	    -15.58402759	     -7.81620599	     76.36095995	     47.51042139	      0.00000000	      0.00000000
     58.08514286	     -4.68817854	     -3.38953351	     -3.25405667	      0.99044505	      0.92195489	      0.40226004	     26.35277891	     -0.71392667	    -15.59569765	     10.87238836	     10.87238836	      0.63530057	      5.47191452	      9.67435507	     -2.39643238	     -2.42459372	    -13.69431281	     10.73632371	     10.73632371	     18.20391021	     -2.75892547	     -4.74522574	     -8.69421887	      5.85196562	      2.21100671	    -17.09247297	    -12.24984597	    -16.21287288	     21.39126804	     47.78733965	      0.00000000	      0.00000000	     25.37701138	    -15.45298946	     -7.72981179	     76.26424957	     47.50251467	      0.00000000	      0.00000000
     58.09771429	     -4.70372086	     -3.45742867	     -3.15856258	      0.99178065	      0.92090102	      0.40425764	     25.86577432	     -0.48397175	    -15.91326065	     11.15969402	     11.15969402	      0.60340040	      5.32193497	      9.39781345	     -2.93170930	     -2.64717903	    -13.60057276	     10.89118359	     10.89118359	     18.53453619	     -2.75232909	     -4.79059473	     -8.45834625	      5.90739044	      2.26293090	    -16.86499853	    -12.03934618	    -16.17226558	     21.42364129	     47.78192261	      0.00000000	      0.00000000	     24.87314957	    -15.21071241	     -7.58779466	     76.05315887	     47.48730463	      0.00000000	      0.00000000
     58.11028571	     -4.58944004	     -3.53915022	     -3.00939907	      0.99344140	      0.91985251	      0.40649149	     25.12258453	     -0.20193194	    -15.97580583	     11.26333047	     11.26333047	     -1.61170584	      4.47391637	      2.13548211	     -3.25487020	     -3.12335787	    -14.27754132	     11.93736523	     11.93736523	     20.16615787	     -1.24035818	     -2.76931717	     -8.28901886	      5.99914496	      2.21711406	    -16.04963417	    -11.95869096	    -15.64478166	     20.20457229	     47.75467854	      0.00000000	      0.00000000	     24.52534573	    -15.20800525	     -7.02202449	     74.97664535	     47.47142725	      0.00000000	      0.00000000
